<svg width="96" height="96" viewBox="0 0 96 96" fill="none" xmlns="http://www.w3.org/2000/svg">
<g clip-path="url(#clip0_269_13)">
<rect width="96" height="96" fill="black"/>
<path d="M29 75V19H50.0367C54.0079 19 57.3082 19.638 59.9378 20.9141C62.5853 22.1719 64.562 23.8945 65.8678 26.082C67.1915 28.2695 67.8534 30.7487 67.8534 33.5195C67.8534 35.7982 67.4241 37.7487 66.5654 39.3711C65.7068 40.9753 64.553 42.2786 63.1041 43.2812C61.6551 44.2839 60.0362 45.0039 58.2474 45.4414V45.9883C60.1972 46.0977 62.0665 46.7083 63.8554 47.8203C65.6621 48.9141 67.1379 50.4635 68.2827 52.4687C69.4276 54.474 70 56.8984 70 59.7422C70 62.6406 69.3113 65.2474 67.9339 67.5625C66.5565 69.8594 64.4815 71.6732 61.7088 73.0039C58.9361 74.3346 55.4479 75 51.2441 75H29ZM38.9548 66.5234H49.661C53.2744 66.5234 55.8772 65.8216 57.4692 64.418C59.0792 62.9961 59.8842 61.1732 59.8842 58.9492C59.8842 57.2904 59.4817 55.7956 58.6767 54.4648C57.8717 53.1159 56.7269 52.0586 55.2421 51.293C53.7574 50.5091 51.9865 50.1172 49.9293 50.1172H38.9548V66.5234ZM38.9548 42.8164H48.8024C50.5196 42.8164 52.067 42.4974 53.4444 41.8594C54.8218 41.2031 55.904 40.2826 56.6911 39.0977C57.4961 37.8945 57.8986 36.4727 57.8986 34.832C57.8986 32.6628 57.1473 30.8763 55.6446 29.4727C54.1599 28.069 51.9507 27.3672 49.017 27.3672H38.9548V42.8164Z" fill="white"/>
</g>
<defs>
<clipPath id="clip0_269_13">
<rect width="96" height="96" rx="20" fill="white"/>
</clipPath>
</defs>
</svg>
